<?xml version="1.0" encoding="UTF-8"?>
<svg xmlns="http://www.w3.org/2000/svg" width="875.31098" height="589.74998">
<g transform="translate(0,-462.61221)">
<rect style="fill:#fff" width="875.31097" height="589.75" x="0" y="462.61221" />
<path style="fill:#000" d="m 875.31055,462.61223 c -12.19759,0 -36.25226,5.29429 -48.56446,25.58789 -0.67461,1.11192 -1.33339,2.17924 -1.99609,3.25586 -2.07719,-11.61969 -8.61671,-15.203 -14.67188,-19.64649 -3.53221,9.66062 -4.05876,24.61746 6.88282,31.73829 -2.92912,4.29654 -5.96812,8.42771 -9.31446,12.5371 -3.0358,-14.47973 -12.76843,-19.09783 -20.70312,-21.02148 -1.82864,10.09137 -2.09633,26.70478 9.26758,33.7207 -3.92972,3.9721 -8.34782,8.09291 -13.38282,12.47266 -1.88332,-17.06656 -13.36402,-19.14697 -21.13867,-21.15039 -8.05206,13.78322 -2.45561,30.22715 6.98828,32.85351 -6.40382,4.99237 -11.67893,9.07754 -17.49804,13.29493 -1.91807,-20.08168 -15.14003,-22.61386 -21.83008,-24.14453 -11.13326,11.06074 -9.02909,26.90734 1.55078,37.83593 -6.84974,4.34885 -14.37616,8.89223 -22.48437,13.5625 1.42715,-18.75811 -1.66912,-25.84212 -16.26368,-35.17187 -16.20674,11.86223 -18.82453,36.70168 -8.45898,48.80273 -6.60346,3.49178 -13.47738,7.01493 -20.60938,10.55274 0.86129,-19.3329 2.2644,-30.41849 -14.63086,-47.17188 -16.29114,16.81538 -17.91359,40.72248 -11.13085,59.4707 -6.2502,2.90454 -12.9182,5.84343 -18.72657,8.33204 3.18065,-20.62224 3.79108,-33.4049 -17.87109,-58.25782 -20.13266,25.54745 -23.78492,53.26595 -16.19922,72.10352 -7.72964,3.01862 -14.52904,5.60704 -21.71289,8.31055 4.46989,-27.48282 10.05905,-45.16761 -13.20703,-70.8379 -31.2571,27.78028 -26.7614,65.1976 -20.90039,83.47852 -6.3079,2.31849 -12.53961,4.61183 -19.51563,7.16797 4.4329,-27.60421 8.7474,-60.21138 -19.20898,-83.83399 -36.0559,31.85367 -25.96817,79.11697 -17.70899,97.37696 -8.00299,2.93764 -15.83525,5.81593 -24.19531,8.89844 4.4838,-27.8938 11.10457,-77.55981 -17.5332,-101.3379 -40.47093,35.76394 -28.83699,90.1432 -14.46289,113.1836 -10.66935,3.96958 -21.39724,7.98777 -32.13281,12.0332 8.64466,-31.49209 23.80278,-82.46516 -22.0293,-120.7168 -42.09835,39.09746 -34.53397,106.71252 -20.85352,136.99805 -11.95293,4.78199 -24.27493,9.52451 -34.02929,13.40039 6.56239,-29.22164 24.67479,-106.20168 -23.17969,-141.39844 -60.86898,45.36519 -40.54601,127.14393 -20.75781,159.34376 -14.67582,6.18336 -28.64869,12.52546 -41.98047,18.73046 5.22799,-36.48996 26.58011,-110.10982 -37.82227,-155.31054 -67.51409,48.46076 -41.83937,158.67992 -20.05469,184.08789 -11.56039,6.18938 -23.44313,12.85348 -35.70898,20.11719 3.47154,-36.81052 8.98878,-140.24322 -57.472656,-160.76172 C 10.782225,756.9253 48.391028,843.71407 78.527344,872.91301 54.066341,889.43694 28.032856,908.54648 0,931.09465 l 0,121.26755 875.31055,0 z"/>
<path style="fill:#fff" d="m 869.71484,468.43645 c -14.08355,1.72637 -27.03123,8.75528 -35.4707,18.00781 -10.03246,10.99898 -15.22862,25.39618 -29.82226,41.33398 -26.87007,29.34494 -61.96041,56.83439 -121.71094,89.71485 C 622.96042,650.37356 538.81531,681.13147 439.4668,720.3759 340.1183,759.62033 227.95798,804.77592 159.74609,847.63957 95.929765,887.74109 57.896969,910.48143 0,972.19426 l 0,80.16794 2.0644531,0 c 0,0 22.4933009,-53.30772 82.1855469,-112.99997 9.879809,-9.87981 24.13844,-21.49954 40.91211,-33.82227 24.7385,56.792 80.42802,99.93624 210.61719,98.44924 -24.04807,-54.30659 -67.6151,-93.06679 -165.17774,-129.65432 12.15381,-7.89269 24.6604,-15.7192 37.15821,-23.25976 26.47289,45.77844 108.62055,91.58558 176.6875,77.66211 -13.55293,-34.29837 -70.06236,-85.17068 -137.0625,-100.64844 11.96521,-6.65807 23.33609,-12.70982 34.56054,-18.3457 33.33434,51.3223 120.51129,72.59981 152.66211,68.76953 -9.46741,-32.75104 -60.31843,-77.76546 -103.13086,-92.3418 7.84772,-3.59182 15.85205,-7.22142 24.10742,-10.90234 27.85734,43.34959 102.55651,66.91917 135.67969,64.08789 -16.01541,-32.36454 -49.81049,-70.89403 -94.64648,-82.06641 9.14938,-3.94733 17.18594,-7.371 25.35547,-10.83398 23.63415,43.75544 92.33809,60.36371 124.57812,56.66211 -9.09979,-31.65448 -41.83057,-64.23127 -88.77344,-71.71875 8.45655,-3.53146 16.41678,-6.84478 24.57813,-10.23242 29.92406,34.29505 80.15119,47.7651 116.78711,47.92187 -10.7202,-29.34849 -34.98511,-55.4654 -80.15625,-63.11914 8.51635,-3.53416 16.55714,-6.88568 24.26758,-10.11328 26.19852,35.5152 77.45958,38.68828 111.82226,36.35547 -7.76809,-22.22139 -36.47792,-44.65615 -76.91015,-51.21094 8.37446,-3.63859 16.6574,-7.44508 24.30078,-11.00195 30.64815,35.71467 66.62069,31.10365 101.85937,27.52539 -7.65851,-18.04145 -29.29269,-39.69272 -67.78906,-43.86133 7.35952,-3.62896 14.69531,-7.30483 21.93945,-11.02149 22.02571,23.4305 63.4039,27.08779 88.09961,22.625 -4.83995,-15.3789 -30.98486,-32.87681 -64.77344,-34.8789 7.94312,-4.27829 15.3739,-8.38041 22.60938,-12.60938 19.3734,22.47719 50.5049,19.55328 80.80078,14.23047 -7.27988,-14.17747 -28.22665,-27.17977 -61.26367,-26.20898 7.85806,-5.04129 15.10801,-9.95391 21.60547,-14.54883 18.6289,18.7366 48.88519,19.61167 69.6582,9.38281 -8.33957,-9.9731 -19.61035,-25.2045 -50.60156,-23.53125 5.09925,-3.93046 10.18137,-8.18585 14.64844,-12.12109 18.56233,15.6875 48.3269,8.26389 61.95312,-0.53516 -7.22077,-8.29581 -21.24719,-15.8801 -45.79492,-14.82617 3.08047,-3.1766 6.08722,-6.44377 9.01172,-9.8125 19.98845,11.72595 39.1457,5.72409 51.02539,-3.00781 -8.20573,-9.0155 -26.10399,-11.01242 -43.4707,-6.16797 3.21231,-4.12507 6.29973,-8.41284 9.25976,-12.86719 12.85714,6.20397 36.80473,5.7343 43.31836,-7.66406 -5.81219,-5.20494 -24.41429,-5.80403 -36.55078,-3.23438 1.2106,-2.09419 2.40266,-4.214 3.55664,-6.38476 19.18227,2.32659 38.81071,-10.18184 38.14648,-32.04492 z"/>
  </g>
</svg>
